<svg xmlns="http://www.w3.org/2000/svg" viewBox="0 0 1920 960">
  <defs>
    <style>
      .cls-1 {
        fill: #e8eafb;
      }
      .cls-2 {
        fill: none;
        stroke: #a8b3ec;
        stroke-miterlimit: 10;
      }
      .cls-10, .cls-3 {
        fill: #ff6400;
      }
      .cls-4 {
        fill: #465ad2;
      }
      .cls-5 {
        fill:#a8b3ec;
      }
      .cls-6 {
        fill: #fff;
      }
      .cls-7 {
        fill: #5a6bdf;
      }
      .cls-8 {
        opacity:  0.15;
      }
      .cls-9 {
        fill: #031aaf;
      }
      .cls-10 {
        opacity:0.6;
      }
      .cls-11 {
        opacity:0.4;
      }
      .cls-12 {
        opacity: 0.27;
      }
      .cls-13 {
        opacity: 1;
      }
      @keyframes balloon_5 {
        0% {top: 0px;}
        20%{left:10px; transform:rotate(2deg);}
        40%{top:50px;}
        60%{top:30px; transform:rotate(-1deg);}
        80%{top:5px; transform:rotate(1deg);}
        100%{bottom:0px; transform:rotate(0deg);}
      }
      #balloon_5 {
        position:absolute;
        display:block;
        float:left;
        background:transparent;
        transform-origin:bottom center;
        animation: balloon_5 40s infinite ease-in-out;
        ellipse{
          opacity:0.2;
          overflow:hidden;
        }
      }
      @keyframes balloon_4 {
        0% {bottom: 0px;}
        20%{right:10px; transform:rotate(3deg);}
        40%{top:100px;}
        60%{bottom:50px; transform:rotate(-2deg);}
        80%{right:70px; transform:rotate(1deg);}
        100%{top:0px; transform:rotate(0deg);}
      }
      #balloon_4 {
        position:absolute;
        display:block;
        float:left;
        background:transparent;
        // border: slateblue 3px solid;
        transform-origin:bottom center;
        animation: balloon_4 40s infinite ease-in-out;
        ellipse{
          opacity:0.2;
          overflow:hidden;
        }
      }
      @keyframes balloon_3 {
        0% {top: 0px;}
        20%{left:30px; transform:rotate(5deg);}
        40%{top:100px;}
        60%{top:15px; transform:rotate(-5deg);}
        80%{left:5px; transform:rotate(5deg);}
        100%{top:0px; transform:rotate(0deg);}
      }
      #balloon_3 {
        position:absolute;
        display:block;
        float:left;
        background:transparent;
        // border: slateblue 3px solid;
        transform-origin:bottom center;
        animation: balloon_3 40s infinite ease-in-out;
        ellipse{
          opacity:0.2;
          overflow:hidden;
        }
      }
      @keyframes balloon_2 {
        0% {top: 0px;}
        20%{right:10px; transform:rotate(2deg);}
        40%{top:100px;}
        60%{top:50px; transform:rotate(-1deg);}
        80%{right:5px; transform:rotate(1deg);}
        100%{top:0px; transform:rotate(0deg);}
      }
      #balloon_2 {
        position:absolute;
        display:block;
        float:left;
        background:transparent;
        // border: slateblue 3px solid;
        transform-origin:bottom center;
        animation: balloon_2 60s infinite ease-in-out;
        ellipse{
          opacity:0.2;
          overflow:hidden;
        }
      }
      @keyframes balloon_1 {
        0% {bottom: 0px;}
        20%{left:10px; transform:rotate(5deg);}
        40%{top:100px;}
        60%{top:80px; transform:rotate(-5deg);}
        80%{right:5px; transform:rotate(5deg);}
        100%{top:0px; transform:rotate(0deg);}
      }
      #balloon_1 {
        position:absolute;
        display:block;
        background:transparent;
        transform-origin:bottom center;
        animation: balloon_1 40s infinite ease-in-out;
        ellipse{
          opacity:0.2;
          overflow:hidden;
        }
      }
      @keyframes move-cloud-1 {
        0% {transform:translate(2000px, 0);}
        100%{transform:translate(-2000px, 0);}
      }
      #cloud_1 {
        animation: move-cloud-1 150s infinite linear;
      }
      @keyframes move-cloud-2 {
        0% {
          transform:translate(0, 0);
        }
        10% {
          opacity: 0.8;
          transform:translate(-50px, 0px);        
        }
        25% {
          opacity: 0.7;
          transform:translate(-100px, -5px);        
        }
        50% {
          opacity: 0.6;
          transform:translate(-200px, -10px);        
        }
        75% {
          opacity: 0.5;
          transform:translate(100px, -5px);        
        }
        85% {
          opacity: 0.7;
          transform:translate(50px, 0px);        
        }
        100% {
          opacity: 0.9;
          transform:translate(0px, 0px);
        }
      }
      #cloud_2 {
        animation: move-cloud-2 80s infinite ease-in-out;
      }
      @keyframes move-cloud-3 {
        0% {transform:translate(0px, 0);}
        50%{transform:translate(100px, 0);}
        100%{transform:translate(0px, 0);}
      }
      #cloud_3 {
        animation: move-cloud-3 50s infinite linear;
      }
      @keyframes move-cloud-4 {
        0% {transform:translate(0px, 0);}
        50%{transform:translate(-60%, 0);}
        100%{transform:translate(0px, 0);}
      }
      #cloud_4 {
        animation: move-cloud-4 200s infinite linear;
      }
      @keyframes move-cloud-5 {
        0% {transform:translate(0px, 0);}
        50%{transform:translate(100px, 0);}
        100%{transform:translate(0px, 0);}
      }
      #cloud_5 {
        animation: move-cloud-5 220s infinite linear;
      }
    </style>
  </defs>
  <title>layer_for_movement</title>
  <g id="Layer_2" data-name="Layer 2">
    <path id="cloud_5" data-name="cloud 5" class="cls-1" d="M664.245,833.2894c-18.4738-6.4552-39.9183.0193-57.6623-10.509-4.4849-2.661-9.3533-6.4547-13.9772-4.2447-2.6832,1.2824-4.5982,4.352-6.87,6.6279-6.3964,6.407-16.2606,5.8063-22.181-1.3509-2.5245-3.0518-4.398-7.1244-7.38-9.3474-4.8793-3.6375-11.0463-1.1923-16.0316,2.1862-7.1391,4.8378-33.5864,11.6555-40.7022,16.6379Z" />
    <path id="cloud_4" data-name="cloud 4" class="cls-1" d="M1704.742,627.2724c-18.4738-6.4552-39.9183.0193-57.6623-10.509-4.4849-2.6611-9.3533-6.4548-13.9772-4.2448-2.6832,1.2825-4.5982,4.352-6.87,6.6279-6.3965,6.4071-16.2606,5.8063-22.1811-1.3508-2.5245-3.0519-4.398-7.1245-7.38-9.3475-4.8793-3.6374-11.0463-1.1923-16.0316,2.1863-7.1391,4.8378-33.5865,11.6555-40.7022,16.6379Z" />
    <g id="balloon_5" data-name="balloon 5">
      <line class="cls-2" x1="127.9484" y1="677.9193" x2="127.9484" y2="698.2997" />
      <line class="cls-2" x1="169.1586" y1="641.8225" x2="137.2111" y2="697.7703" />
      <line class="cls-2" x1="87.0697" y1="641.8225" x2="119.0172" y2="697.7703" />
      <rect class="cls-3" x="116.7931" y="643.2581" width="22.1085" height="40.7753" rx="2.6636" ry="2.6636" />
      <rect class="cls-3" x="123.9527" y="676.5753" width="7.791" height="10.5922" rx="1.087" ry="1.087" />
      <rect class="cls-3" x="118.0188" y="587.4933" width="19.2408" height="6.9267" rx="1.8872" ry="1.8872" />
      <path class="cls-4" d="M177.1865,624.084c0,20.3167-22.0885,55.15-49.336,55.15s-49.336-34.8332-49.336-55.15S100.603,590.97,127.8505,590.97,177.1865,603.7672,177.1865,624.084Z" />
      <path class="cls-5" d="M152.3849,624.084c0,20.3167-10.9844,55.15-24.5344,55.15s-24.5344-34.8332-24.5344-55.15S114.3005,590.97,127.8505,590.97,152.3849,603.7672,152.3849,624.084Z" />
      <path class="cls-6" d="M161.0858,624.084c0,20.3167-14.88,55.15-33.2353,55.15s-33.2353-34.8332-33.2353-55.15,14.88-33.1141,33.2353-33.1141S161.0858,603.7672,161.0858,624.084Z" />
      <path class="cls-4" d="M140.1917,624.084c0,20.3167-5.5253,55.15-12.3412,55.15s-12.3413-34.8332-12.3413-55.15,5.5254-33.1141,12.3413-33.1141S140.1917,603.7672,140.1917,624.084Z" />
      <rect class="cls-7" x="118.0949" y="698.0044" width="19.5767" height="16.5604" rx="1.3296" ry="1.3296" />
      <rect class="cls-7" x="122.6796" y="698.0044" width="10.4074" height="16.5604" rx="0.9695" ry="0.9695" />
      <g class="cls-8">
          <path class="cls-6" d="M122.68,712.7856v-13.002a1.7844,1.7844,0,0,1,1.7792-1.7792h-3.9237a2.4473,2.4473,0,0,0-2.44,2.44v11.68a2.4474,2.4474,0,0,0,2.44,2.44h3.9237A1.7844,1.7844,0,0,1,122.68,712.7856Z" />
          <path class="cls-9" d="M135.2314,698.0044h-3.9237a1.7844,1.7844,0,0,1,1.7792,1.7792v13.002a1.7844,1.7844,0,0,1-1.7792,1.7792h3.9237a2.4473,2.4473,0,0,0,2.44-2.44v-11.68A2.4473,2.4473,0,0,0,135.2314,698.0044Z" />
      </g>
      <rect class="cls-5" x="115.7232" y="696.3056" width="24.5731" height="4.6075" rx="1.2553" ry="1.2553" />
      <path class="cls-2" d="M127.8663,700.1244a4.905,4.905,0,0,1-9.81,0" />
      <path class="cls-2" d="M137.6671,700.1244a4.905,4.905,0,0,1-9.81,0" />
      <rect class="cls-5" x="127.1429" y="576.6839" width="1.4846" height="10.9488" />
      <rect class="cls-4" x="128.0353" y="577.7771" width="5.3047" height="4.3646" />
      <rect class="cls-10" x="128.0353" y="577.7771" width="5.3047" height="4.3646" />
      <rect class="cls-3" x="130.2357" y="579.7261" width="5.3047" height="4.3646" />
    </g>
    <g id="balloon_4" data-name="balloon 4" class="cls-11">
      <rect class="cls-5" x="1448.5137" y="566.0521" width="8.7656" height="16.1665" rx="1.0561" ry="1.0561" />
      <rect class="cls-5" x="1451.3523" y="579.2617" width="3.089" height="4.1996" rx="0.431" ry="0.431" />
      <rect class="cls-5" x="1448.9996" y="543.9425" width="7.6286" height="2.7463" rx="0.7482" ry="0.7482" />
      <line class="cls-2" x1="1452.9365" y1="579.7945" x2="1452.9365" y2="587.8749" />
      <path class="cls-5" d="M1472.4584,558.45c0,8.0552-8.7576,21.8658-19.5607,21.8658s-19.5607-13.8106-19.5607-21.8658,8.7576-13.129,19.5607-13.129S1472.4584,550.3948,1472.4584,558.45Z" />
      <path class="cls-5" d="M1462.6251,558.45c0,8.0552-4.3551,21.8658-9.7274,21.8658s-9.7274-13.8106-9.7274-21.8658,4.3551-13.129,9.7274-13.129S1462.6251,550.3948,1462.6251,558.45Z" />
      <path class="cls-6" d="M1466.0748,558.45c0,8.0552-5.9,21.8658-13.1771,21.8658s-13.1771-13.8106-13.1771-21.8658,5.9-13.129,13.1771-13.129S1466.0748,550.3948,1466.0748,558.45Z" />
      <path class="cls-5" d="M1458.902,558.45c0,8.0552-2.6882,21.8658-6.0043,21.8658s-6.0042-13.8106-6.0042-21.8658,2.6882-13.129,6.0042-13.129S1458.902,550.3948,1458.902,558.45Z" />
      <rect class="cls-7" x="1449.0298" y="587.7579" width="7.7618" height="6.5659" rx="0.5272" ry="0.5272" />
      <rect class="cls-7" x="1450.8476" y="587.7579" width="4.1263" height="6.5659" rx="0.3844" ry="0.3844" />
      <g class="cls-12">
        <path class="cls-6" d="M1450.8476,593.6183v-5.155a.7075.7075,0,0,1,.7054-.7055h-1.5557a.97.97,0,0,0-.9675.9675v4.6309a.97.97,0,0,0,.9675.9675h1.5557A.7074.7074,0,0,1,1450.8476,593.6183Z" />
        <path class="cls-9" d="M1455.8241,587.7578h-1.5557a.7076.7076,0,0,1,.7055.7055v5.155a.7075.7075,0,0,1-.7055.7054h1.5557a.97.97,0,0,0,.9675-.9675v-4.6309A.97.97,0,0,0,1455.8241,587.7578Z" />
      </g>
      <rect class="cls-5" x="1448.0895" y="587.0843" width="9.7427" height="1.8268" rx="0.4977" ry="0.4977" />
      <line class="cls-2" x1="1469.2755" y1="565.4829" x2="1456.609" y2="587.6651" />
      <line class="cls-2" x1="1436.729" y1="565.4829" x2="1449.3955" y2="587.6651" />
      <path class="cls-2" d="M1452.904,588.5984a1.9448,1.9448,0,0,1-3.8895,0" />
      <path class="cls-2" d="M1456.79,588.5984a1.9448,1.9448,0,0,1-3.8895,0" />
      <rect class="cls-5" x="1452.6172" y="539.6568" width="0.5886" height="4.341" />
      <rect class="cls-7" x="1452.971" y="540.0902" width="2.1032" height="1.7305" />
      <rect class="cls-5" x="1453.8434" y="540.8629" width="2.1032" height="1.7305" />
      <g class="cls-13">
        <path class="cls-9" d="M1443.17,558.45c0-8.0552,4.3551-13.129,9.7274-13.129-10.803,0-19.5607,5.0738-19.5607,13.129s8.7577,21.8658,19.5607,21.8658C1447.5254,580.3157,1443.17,566.5051,1443.17,558.45Z" />
        <path class="cls-9" d="M1452.8977,545.3209c5.3723,0,9.7274,5.0738,9.7274,13.129s-4.3551,21.8658-9.7274,21.8658c10.8031,0,19.5607-13.8106,19.5607-21.8658S1463.7008,545.3209,1452.8977,545.3209Z" />
      </g>
    </g>
    <path id="cloud_3" data-name="cloud 3" class="cls-1" d="M103.0915,807.3544a106.9434,106.9434,0,0,1,30.1015,2.257C149.37,813.078,179.6,821.3544,179.6,821.3544L39.3042,819.7609S52.6359,808.5087,60.882,808.353c3.3075-.0624,12.3832,5.3307,18.5468,5.4717C87.4133,814.0074,94.7986,807.3544,103.0915,807.3544Z" />
    <g id="cloud_2" data-name="cloud 2">
      <path class="cls-1" d="M431.6511,500.6289c-18.4737-6.4552-39.9183.0193-57.6623-10.509-4.4848-2.6611-9.3533-6.4548-13.9772-4.2448-2.6831,1.2825-4.5982,4.352-6.87,6.6279-6.3964,6.4071-16.2606,5.8064-22.181-1.3508-2.5245-3.0519-4.398-7.1244-7.38-9.3474-4.8793-3.6375-11.0462-1.1924-16.0316,2.1862-7.139,4.8378-33.5864,11.6555-40.7021,16.6379Z" />
    </g>
    <g id="balloon_3" data-name="balloon 3" class="cls-11">
      <rect class="cls-5" x="412.5488" y="410.1673" width="17.4352" height="32.1562" rx="1.0561" ry="1.0561" />
      <rect class="cls-5" x="418.195" y="436.4419" width="6.1441" height="8.3532" rx="0.431" ry="0.431" />
      <rect class="cls-5" x="413.5154" y="366.1901" width="15.1737" height="5.4625" rx="0.7482" ry="0.7482" />
      <line class="cls-2" x1="421.3461" y1="437.5018" x2="421.3461" y2="453.5742" />
      <path class="cls-5" d="M460.1762,395.0462c0,16.0222-17.4194,43.4923-38.9073,43.4923s-38.9074-27.47-38.9074-43.4923,17.4194-26.1144,38.9074-26.1144S460.1762,379.024,460.1762,395.0462Z" />
      <path class="cls-5" d="M440.6172,395.0462c0,16.0222-8.6625,43.4923-19.3483,43.4923s-19.3484-27.47-19.3484-43.4923,8.6626-26.1144,19.3484-26.1144S440.6172,379.024,440.6172,395.0462Z" />
      <path class="cls-6" d="M447.4789,395.0462c0,16.0222-11.7346,43.4923-26.21,43.4923s-26.21-27.47-26.21-43.4923,11.7346-26.1144,26.21-26.1144S447.4789,379.024,447.4789,395.0462Z" />
      <path class="cls-5" d="M433.2116,395.0462c0,16.0222-5.3469,43.4923-11.9427,43.4923s-11.9428-27.47-11.9428-43.4923,5.347-26.1144,11.9428-26.1144S433.2116,379.024,433.2116,395.0462Z" />
      <rect class="cls-7" x="413.5754" y="453.3413" width="15.4386" height="13.0599" rx="0.5272" ry="0.5272" />
      <rect class="cls-7" x="417.191" y="453.3413" width="8.2074" height="13.0599" rx="0.3844" ry="0.3844" />
      <g class="cls-12">
        <path class="cls-6" d="M417.191,464.998V454.7444a1.4072,1.4072,0,0,1,1.4031-1.4031H415.5a1.93,1.93,0,0,0-1.9244,1.9244v9.2111a1.93,1.93,0,0,0,1.9244,1.9243h3.0943A1.4072,1.4072,0,0,1,417.191,464.998Z" />
        <path class="cls-9" d="M427.09,453.3413h-3.0943a1.4072,1.4072,0,0,1,1.4031,1.4031V464.998a1.4072,1.4072,0,0,1-1.4031,1.4031H427.09a1.93,1.93,0,0,0,1.9244-1.9243v-9.2111A1.93,1.93,0,0,0,427.09,453.3413Z" />
      </g>
      <rect class="cls-5" x="411.7051" y="452.0016" width="19.3789" height="3.6335" rx="0.4977" ry="0.4977" />
      <line class="cls-2" x1="453.8453" y1="409.0352" x2="428.6508" y2="453.1567" />
      <line class="cls-2" x1="389.1083" y1="409.0352" x2="414.3028" y2="453.1567" />
      <path class="cls-2" d="M421.2813,455.0132a3.8682,3.8682,0,1,1-7.7363,0" />
      <path class="cls-2" d="M429.01,455.0132a3.8682,3.8682,0,1,1-7.7363,0" />
      <rect class="cls-5" x="420.7109" y="357.6656" width="1.1708" height="8.6345" />
      <rect class="cls-7" x="421.4146" y="358.5277" width="4.1834" height="3.442" />
      <rect class="cls-5" x="423.1499" y="360.0647" width="4.1834" height="3.442" />
      <g class="cls-13">
        <path class="cls-9" d="M401.9206,395.0462c0-16.0222,8.6625-26.1144,19.3482-26.1144-21.4878,0-38.9073,10.0922-38.9073,26.1144s17.42,43.4923,38.9073,43.4923C410.5831,438.5385,401.9206,411.0684,401.9206,395.0462Z" />
        <path class="cls-9" d="M421.2688,368.9318c10.6859,0,19.3484,10.0922,19.3484,26.1144s-8.6625,43.4923-19.3484,43.4923c21.488,0,38.9074-27.47,38.9074-43.4923S442.7568,368.9318,421.2688,368.9318Z" />
      </g>
    </g>
    <g id="balloon_2" data-name="balloon 2" class="cls-11">
      <rect class="cls-5" x="1631.1894" y="360.8343" width="10.9853" height="20.2605" rx="1.0561" ry="1.0561" />
      <rect class="cls-5" x="1634.7469" y="377.389" width="3.8712" height="5.2631" rx="0.431" ry="0.431" />
      <rect class="cls-5" x="1631.7984" y="333.1258" width="9.5604" height="3.4418" rx="0.7482" ry="0.7482" />
      <line class="cls-2" x1="1636.7323" y1="378.0568" x2="1636.7323" y2="388.1834" />
      <path class="cls-5" d="M1661.1978,351.307c0,10.095-10.9754,27.403-24.5142,27.403s-24.5141-17.308-24.5141-27.403,10.9753-16.4538,24.5141-16.4538S1661.1978,341.212,1661.1978,351.307Z" />
      <path class="cls-5" d="M1648.8744,351.307c0,10.095-5.458,27.403-12.1908,27.403s-12.1907-17.308-12.1907-27.403,5.458-16.4538,12.1907-16.4538S1648.8744,341.212,1648.8744,351.307Z" />
      <path class="cls-6" d="M1653.1977,351.307c0,10.095-7.3936,27.403-16.5141,27.403s-16.514-17.308-16.514-27.403,7.3936-16.4538,16.514-16.4538S1653.1977,341.212,1653.1977,351.307Z" />
      <path class="cls-5" d="M1644.2084,351.307c0,10.095-3.369,27.403-7.5248,27.403s-7.5247-17.308-7.5247-27.403,3.3689-16.4538,7.5247-16.4538S1644.2084,341.212,1644.2084,351.307Z" />
      <rect class="cls-7" x="1631.8363" y="388.0367" width="9.7273" height="8.2286" rx="0.5272" ry="0.5272" />
      <rect class="cls-7" x="1634.1143" y="388.0367" width="5.1712" height="8.2286" rx="0.3844" ry="0.3844" />
      <g class="cls-12">
        <path class="cls-6" d="M1634.1143,395.3812v-6.46a.8866.8866,0,0,1,.8841-.8841h-1.95a1.216,1.216,0,0,0-1.2125,1.2125v5.8036a1.216,1.216,0,0,0,1.2125,1.2125h1.95A.8867.8867,0,0,1,1634.1143,395.3812Z" />
        <path class="cls-9" d="M1640.3511,388.0367h-1.95a.8866.8866,0,0,1,.884.8841v6.46a.8867.8867,0,0,1-.884.8841h1.95a1.216,1.216,0,0,0,1.2125-1.2125v-5.8036A1.216,1.216,0,0,0,1640.3511,388.0367Z" />
      </g>
      <rect class="cls-5" x="1630.6578" y="387.1926" width="12.21" height="2.2894" rx="0.4977" ry="0.4977" />
      <line class="cls-2" x1="1657.2089" y1="360.121" x2="1641.3347" y2="387.9204" />
      <line class="cls-2" x1="1616.4204" y1="360.121" x2="1632.2945" y2="387.9204" />
      <path class="cls-2" d="M1636.6915,389.09a2.4372,2.4372,0,1,1-4.8744,0" />
      <path class="cls-2" d="M1641.5613,389.09a2.4372,2.4372,0,0,1-4.8744,0" />
      <rect class="cls-5" x="1636.3321" y="327.7547" width="0.7377" height="5.4403" />
      <rect class="cls-7" x="1636.7755" y="328.298" width="2.6358" height="2.1687" />
      <rect class="cls-5" x="1637.8688" y="329.2664" width="2.6358" height="2.1687" />
      <g class="cls-13">
        <path class="cls-9" d="M1624.4929,351.307c0-10.0951,5.458-16.4538,12.1907-16.4538-13.5387,0-24.5141,6.3587-24.5141,16.4538s10.9754,27.403,24.5141,27.403C1629.9509,378.71,1624.4929,361.402,1624.4929,351.307Z" />
        <path class="cls-9" d="M1636.6836,334.8532c6.7328,0,12.1908,6.3587,12.1908,16.4538s-5.458,27.403-12.1908,27.403c13.5388,0,24.5142-17.308,24.5142-27.403S1650.2224,334.8532,1636.6836,334.8532Z" />
      </g>
    </g>
    <path id="cloud_1" data-name="cloud 1" class="cls-1" d="M1027.742,650.2724c-18.4738-6.4552-39.9183.0193-57.6623-10.509-4.4849-2.6611-9.3533-6.4548-13.9772-4.2448-2.6832,1.2825-4.5982,4.352-6.87,6.6279-6.3965,6.4071-16.2606,5.8063-22.1811-1.3508-2.5245-3.0519-4.398-7.1245-7.38-9.3475-4.8793-3.6374-11.0463-1.1923-16.0316,2.1863-7.1391,4.8378-33.5865,11.6555-40.7022,16.6379Z" />
    <g id="balloon_1" data-name="balloon 1">
      <line class="cls-2" x1="1802.9235" y1="732.785" x2="1802.9235" y2="748.2079" />
      <line class="cls-2" x1="1834.1094" y1="705.4686" x2="1809.933" y2="747.8073" />
      <line class="cls-2" x1="1771.9883" y1="705.4686" x2="1796.1647" y2="747.8073" />
      <rect class="cls-3" x="1794.4817" y="706.555" width="16.7307" height="30.8568" rx="2.6636" ry="2.6636" />
      <rect class="cls-3" x="1799.8997" y="731.7679" width="5.8958" height="8.0157" rx="1.087" ry="1.087" />
      <rect class="cls-3" x="1795.4092" y="664.3548" width="14.5606" height="5.2418" rx="1.8872" ry="1.8872" />
      <path class="cls-4" d="M1840.1845,692.0449c0,15.3748-16.7155,41.7349-37.3351,41.7349s-37.3352-26.36-37.3352-41.7349,16.7155-25.0592,37.3352-25.0592S1840.1845,676.67,1840.1845,692.0449Z" />
      <path class="cls-5" d="M1821.4159,692.0449c0,15.3748-8.3125,41.7349-18.5665,41.7349s-18.5665-26.36-18.5665-41.7349,8.3125-25.0592,18.5665-25.0592S1821.4159,676.67,1821.4159,692.0449Z" />
      <path class="cls-6" d="M1828,692.0449c0,15.3748-11.26,41.7349-25.1509,41.7349s-25.151-26.36-25.151-41.7349,11.2605-25.0592,25.151-25.0592S1828,676.67,1828,692.0449Z" />
      <path class="cls-4" d="M1812.1887,692.0449c0,15.3748-4.1814,41.7349-9.3393,41.7349s-9.3393-26.36-9.3393-41.7349,4.1813-25.0592,9.3393-25.0592S1812.1887,676.67,1812.1887,692.0449Z" />
      <rect class="cls-7" x="1795.4668" y="747.9844" width="14.8148" height="12.5322" rx="1.3296" ry="1.3296" />
      <rect class="cls-7" x="1798.9363" y="747.9844" width="7.8758" height="12.5322" rx="0.9695" ry="0.9695" />
      <g class="cls-8">
          <path class="cls-6" d="M1798.9363,759.17v-9.8393a1.35,1.35,0,0,1,1.3464-1.3464h-2.9693a1.8521,1.8521,0,0,0-1.8466,1.8466V758.67a1.8521,1.8521,0,0,0,1.8466,1.8467h2.9693A1.35,1.35,0,0,1,1798.9363,759.17Z" />
          <path class="cls-9" d="M1808.4349,747.9844h-2.9693a1.35,1.35,0,0,1,1.3465,1.3464V759.17a1.35,1.35,0,0,1-1.3465,1.3465h2.9693a1.852,1.852,0,0,0,1.8466-1.8467V749.831A1.852,1.852,0,0,0,1808.4349,747.9844Z" />
      </g>
      <rect class="cls-5" x="1793.672" y="746.6989" width="18.5958" height="3.4867" rx="1.2553" ry="1.2553" />
      <path class="cls-2" d="M1802.8613,749.5888a3.7119,3.7119,0,0,1-7.4237,0" />
      <path class="cls-2" d="M1810.2781,749.5888a3.7119,3.7119,0,0,1-7.4238,0" />
      <rect class="cls-5" x="1802.3139" y="656.1747" width="1.1235" height="8.2856" />
      <rect class="cls-4" x="1802.9892" y="657.0021" width="4.0143" height="3.3029" />
      <rect class="cls-10" x="1802.9892" y="657.0021" width="4.0143" height="3.3029" />
      <rect class="cls-3" x="1804.6544" y="658.4769" width="4.0143" height="3.3029" />
    </g>
  </g>
</svg>